<?xml version="1.0" encoding="UTF-8"?>
<svg id="Layer_1" xmlns="http://www.w3.org/2000/svg" xmlns:xlink="http://www.w3.org/1999/xlink" version="1.1" viewBox="0 0 32 32">
  <!-- Generator: Adobe Illustrator 30.3.0, SVG Export Plug-In . SVG Version: 2.1.3 Build 182)  -->
  <defs>
    <style>
      .st0 {
        fill: none;
      }

      .st1 {
        fill: #2c3947;
      }

      .st2 {
        fill: url(#linear-gradient);
      }

      .st3 {
        isolation: isolate;
      }

      .st4 {
        fill: #547a95;
      }

      .st5 {
        opacity: .55;
      }

      .st6 {
        fill: #c2a56d;
      }

      .st7 {
        clip-path: url(#clippath);
      }
    </style>
    <linearGradient id="linear-gradient" x1="-371.03" y1="308.16" x2="-370.03" y2="307.16" gradientTransform="translate(11873 9861) scale(32 -32)" gradientUnits="userSpaceOnUse">
      <stop offset="0" stop-color="#d0d9e4" stop-opacity=".88"/>
      <stop offset="1" stop-color="#b8c8d8" stop-opacity=".82"/>
    </linearGradient>
    <clipPath id="clippath">
      <rect class="st0" width="32" height="32" rx="8" ry="8"/>
    </clipPath>
  </defs>
  <rect class="st2" width="32" height="32" rx="8" ry="8"/>
  <g class="st7">
    <g class="st5">
      <circle class="st4" cx="2" cy="2" r=".4"/>
      <circle class="st4" cx="6" cy="2" r=".4"/>
      <circle class="st4" cx="10" cy="2" r=".4"/>
      <circle class="st4" cx="14" cy="2" r=".4"/>
      <circle class="st4" cx="18" cy="2" r=".4"/>
      <circle class="st4" cx="22" cy="2" r=".4"/>
      <circle class="st4" cx="26" cy="2" r=".4"/>
      <circle class="st4" cx="30" cy="2" r=".4"/>
      <circle class="st4" cx="2" cy="6" r=".4"/>
      <circle class="st4" cx="6" cy="6" r=".4"/>
      <circle class="st4" cx="10" cy="6" r=".4"/>
      <circle class="st4" cx="14" cy="6" r=".4"/>
      <circle class="st4" cx="18" cy="6" r=".4"/>
      <circle class="st4" cx="22" cy="6" r=".4"/>
      <circle class="st4" cx="26" cy="6" r=".4"/>
      <circle class="st4" cx="30" cy="6" r=".4"/>
      <circle class="st4" cx="2" cy="10" r=".4"/>
      <circle class="st4" cx="6" cy="10" r=".4"/>
      <circle class="st4" cx="10" cy="10" r=".4"/>
      <circle class="st4" cx="14" cy="10" r=".4"/>
      <circle class="st4" cx="18" cy="10" r=".4"/>
      <circle class="st4" cx="22" cy="10" r=".4"/>
      <circle class="st4" cx="26" cy="10" r=".4"/>
      <circle class="st4" cx="30" cy="10" r=".4"/>
      <circle class="st4" cx="2" cy="14" r=".4"/>
      <circle class="st4" cx="6" cy="14" r=".4"/>
      <circle class="st4" cx="10" cy="14" r=".4"/>
      <circle class="st4" cx="14" cy="14" r=".4"/>
      <circle class="st4" cx="18" cy="14" r=".4"/>
      <circle class="st4" cx="22" cy="14" r=".4"/>
      <circle class="st4" cx="26" cy="14" r=".4"/>
      <circle class="st4" cx="30" cy="14" r=".4"/>
      <circle class="st4" cx="2" cy="18" r=".4"/>
      <circle class="st4" cx="6" cy="18" r=".4"/>
      <circle class="st4" cx="10" cy="18" r=".4"/>
      <circle class="st4" cx="14" cy="18" r=".4"/>
      <circle class="st4" cx="18" cy="18" r=".4"/>
      <circle class="st4" cx="22" cy="18" r=".4"/>
      <circle class="st4" cx="26" cy="18" r=".4"/>
      <circle class="st4" cx="30" cy="18" r=".4"/>
      <circle class="st4" cx="2" cy="22" r=".4"/>
      <circle class="st4" cx="6" cy="22" r=".4"/>
      <circle class="st4" cx="10" cy="22" r=".4"/>
      <circle class="st4" cx="14" cy="22" r=".4"/>
      <circle class="st4" cx="18" cy="22" r=".4"/>
      <circle class="st4" cx="22" cy="22" r=".4"/>
      <circle class="st4" cx="26" cy="22" r=".4"/>
      <circle class="st4" cx="30" cy="22" r=".4"/>
      <circle class="st4" cx="2" cy="26" r=".4"/>
      <circle class="st4" cx="6" cy="26" r=".4"/>
      <circle class="st4" cx="10" cy="26" r=".4"/>
      <circle class="st4" cx="14" cy="26" r=".4"/>
      <circle class="st4" cx="18" cy="26" r=".4"/>
      <circle class="st4" cx="22" cy="26" r=".4"/>
      <circle class="st4" cx="26" cy="26" r=".4"/>
      <circle class="st4" cx="30" cy="26" r=".4"/>
      <circle class="st4" cx="2" cy="30" r=".4"/>
      <circle class="st4" cx="6" cy="30" r=".4"/>
      <circle class="st4" cx="10" cy="30" r=".4"/>
      <circle class="st4" cx="14" cy="30" r=".4"/>
      <circle class="st4" cx="18" cy="30" r=".4"/>
      <circle class="st4" cx="22" cy="30" r=".4"/>
      <circle class="st4" cx="26" cy="30" r=".4"/>
      <circle class="st4" cx="30" cy="30" r=".4"/>
    </g>
  </g>
  <g class="st3">
    <path class="st1" d="M25.37,8.47c-.22.02-.53.07-.94.13s-.77.21-1.1.46c-.29.21-.49.57-.62,1.08s-.18,1.26-.18,2.26v11.88h-2.09l-10.36-12.86v7.8c0,.97.06,1.71.19,2.21s.34.87.63,1.11c.21.17.55.32,1.01.46s.83.22,1.1.27v.91h-7.15v-.91c.3-.02.65-.08,1.05-.17s.72-.23.99-.42c.3-.23.51-.57.63-1.03s.17-1.22.17-2.3v-7.88c0-.39-.06-.76-.18-1.11s-.31-.65-.57-.9c-.27-.27-.59-.47-.94-.63s-.76-.27-1.21-.36v-.94h6.26l9.09,11.25v-6.29c0-1-.07-1.74-.2-2.23s-.34-.85-.63-1.08c-.23-.18-.56-.33-1.01-.46s-.8-.22-1.08-.26v-.91h7.14v.91Z"/>
  </g>
  <circle class="st6" cx="21.85" cy="21.16" r="3.5"/>
</svg>