<svg xmlns="http://www.w3.org/2000/svg" viewBox="0 0 32 32">
  <defs>
    <linearGradient id="bg" x1="0" y1="0" x2="1" y2="1">
      <stop offset="0%" stop-color="#D0D9E4" stop-opacity="0.88"/>
      <stop offset="100%" stop-color="#B8C8D8" stop-opacity="0.82"/>
    </linearGradient>
    <clipPath id="clip">
      <rect width="32" height="32" rx="8"/>
    </clipPath>
  </defs>

  <rect width="32" height="32" rx="8" fill="url(#bg)"/>

  <g clip-path="url(#clip)" opacity="0.55">
    <circle cx="2"  cy="2"  r="0.4" fill="#547A95"/>
    <circle cx="6"  cy="2"  r="0.4" fill="#547A95"/>
    <circle cx="10" cy="2"  r="0.4" fill="#547A95"/>
    <circle cx="14" cy="2"  r="0.4" fill="#547A95"/>
    <circle cx="18" cy="2"  r="0.4" fill="#547A95"/>
    <circle cx="22" cy="2"  r="0.4" fill="#547A95"/>
    <circle cx="26" cy="2"  r="0.4" fill="#547A95"/>
    <circle cx="30" cy="2"  r="0.4" fill="#547A95"/>

    <circle cx="2"  cy="6"  r="0.4" fill="#547A95"/>
    <circle cx="6"  cy="6"  r="0.4" fill="#547A95"/>
    <circle cx="10" cy="6"  r="0.4" fill="#547A95"/>
    <circle cx="14" cy="6"  r="0.4" fill="#547A95"/>
    <circle cx="18" cy="6"  r="0.4" fill="#547A95"/>
    <circle cx="22" cy="6"  r="0.4" fill="#547A95"/>
    <circle cx="26" cy="6"  r="0.4" fill="#547A95"/>
    <circle cx="30" cy="6"  r="0.4" fill="#547A95"/>

    <circle cx="2"  cy="10" r="0.4" fill="#547A95"/>
    <circle cx="6"  cy="10" r="0.4" fill="#547A95"/>
    <circle cx="10" cy="10" r="0.4" fill="#547A95"/>
    <circle cx="14" cy="10" r="0.4" fill="#547A95"/>
    <circle cx="18" cy="10" r="0.4" fill="#547A95"/>
    <circle cx="22" cy="10" r="0.4" fill="#547A95"/>
    <circle cx="26" cy="10" r="0.4" fill="#547A95"/>
    <circle cx="30" cy="10" r="0.4" fill="#547A95"/>

    <circle cx="2"  cy="14" r="0.4" fill="#547A95"/>
    <circle cx="6"  cy="14" r="0.4" fill="#547A95"/>
    <circle cx="10" cy="14" r="0.4" fill="#547A95"/>
    <circle cx="14" cy="14" r="0.4" fill="#547A95"/>
    <circle cx="18" cy="14" r="0.4" fill="#547A95"/>
    <circle cx="22" cy="14" r="0.4" fill="#547A95"/>
    <circle cx="26" cy="14" r="0.4" fill="#547A95"/>
    <circle cx="30" cy="14" r="0.4" fill="#547A95"/>

    <circle cx="2"  cy="18" r="0.4" fill="#547A95"/>
    <circle cx="6"  cy="18" r="0.4" fill="#547A95"/>
    <circle cx="10" cy="18" r="0.4" fill="#547A95"/>
    <circle cx="14" cy="18" r="0.4" fill="#547A95"/>
    <circle cx="18" cy="18" r="0.4" fill="#547A95"/>
    <circle cx="22" cy="18" r="0.4" fill="#547A95"/>
    <circle cx="26" cy="18" r="0.4" fill="#547A95"/>
    <circle cx="30" cy="18" r="0.4" fill="#547A95"/>

    <circle cx="2"  cy="22" r="0.4" fill="#547A95"/>
    <circle cx="6"  cy="22" r="0.4" fill="#547A95"/>
    <circle cx="10" cy="22" r="0.4" fill="#547A95"/>
    <circle cx="14" cy="22" r="0.4" fill="#547A95"/>
    <circle cx="18" cy="22" r="0.4" fill="#547A95"/>
    <circle cx="22" cy="22" r="0.4" fill="#547A95"/>
    <circle cx="26" cy="22" r="0.4" fill="#547A95"/>
    <circle cx="30" cy="22" r="0.4" fill="#547A95"/>

    <circle cx="2"  cy="26" r="0.4" fill="#547A95"/>
    <circle cx="6"  cy="26" r="0.4" fill="#547A95"/>
    <circle cx="10" cy="26" r="0.4" fill="#547A95"/>
    <circle cx="14" cy="26" r="0.4" fill="#547A95"/>
    <circle cx="18" cy="26" r="0.4" fill="#547A95"/>
    <circle cx="22" cy="26" r="0.4" fill="#547A95"/>
    <circle cx="26" cy="26" r="0.4" fill="#547A95"/>
    <circle cx="30" cy="26" r="0.4" fill="#547A95"/>

    <circle cx="2"  cy="30" r="0.4" fill="#547A95"/>
    <circle cx="6"  cy="30" r="0.4" fill="#547A95"/>
    <circle cx="10" cy="30" r="0.4" fill="#547A95"/>
    <circle cx="14" cy="30" r="0.4" fill="#547A95"/>
    <circle cx="18" cy="30" r="0.4" fill="#547A95"/>
    <circle cx="22" cy="30" r="0.4" fill="#547A95"/>
    <circle cx="26" cy="30" r="0.4" fill="#547A95"/>
    <circle cx="30" cy="30" r="0.4" fill="#547A95"/>
  </g>

  <text x="16" y="24"
        text-anchor="middle"
        font-family="Georgia, 'Times New Roman', serif"
        font-weight="700"
        font-size="23">
    <tspan fill="#2C3947">N</tspan><tspan fill="#C2A56D">!</tspan>
  </text>
</svg>
